<svg xmlns="http://www.w3.org/2000/svg" fill="none" viewBox="0 0 312 78">
  <path fill="#FF0" d="M28.5559 28.1547h-8.0775V8.45483H8.54774V28.1547H.470215V.368652H28.5559V28.1547ZM119.48.381836h-8.078V28.1516h8.078V.381836Zm18.846 0h-8.078V28.1516h8.078V.381836Zm-9.42 0h-8.077V28.1516h8.077V.381836ZM252.045 15.6177h-8.077c0-3.942-3.199-7.14642-7.133-7.14642V.381836c8.383 0 15.207 6.836374 15.207 15.235864h.003Z"/>
  <path fill="#FF0" d="M252.277 27.4043h-26.923V.381836h8.077V19.3116h18.846v8.0927Zm40.411-17.2197h-8.078v8.1677h8.078v-8.1677Zm18.842 0h-8.077v8.1677h8.077v-8.1677Zm-9.42 0h-8.077v8.1677h8.077v-8.1677Zm0-9.802764h-8.077V8.5496h8.077V.381836ZM292.688 19.9868h-8.078v8.1678h8.078v-8.1678Zm18.842 0h-8.077v8.1678h8.077v-8.1678ZM292.688.381836h-8.078V8.5496h8.078V.381836Zm18.842 0h-8.077V8.5496h8.077V.381836ZM195.227 27.786h-8.078V8.09271h-11.93V27.786h-8.078V0h28.086v27.786Z"/>
  <path fill="#FF0" d="M185.221 13.901c0 2.2353-1.808 4.0431-4.035 4.0431-2.228 0-4.036-1.8111-4.036-4.0431s1.808-4.04309 4.036-4.04309c2.227 0 4.035 1.81109 4.035 4.04309ZM68.8298.397949 60.8402 14.2698h15.9824L68.8298.397949Z"/>
  <path fill="#FF0" d="M60.84 14.2632 52.8471 28.135h15.9825L60.84 14.2632Zm15.9824 0L68.8328 28.135h15.9857l-7.9961-13.8718ZM2.54134 77.1975V55.0176h7.57596l6.7649 12.7427V55.0176h6.1461v22.1799h-7.234l-7.045-13.4346v13.4346H2.54134Zm70.47676 0-1.1823-3.6842H64.198l-1.2149 3.6842h-6.6412l8.1362-22.1799h7.2046l8.1687 22.1799h-6.8333Zm-7.2339-8.592h4.4263l-2.2148-6.8103-2.2148 6.8103h.0033Zm46.5278 8.592V55.0176h9.168l3.804 13.6499 3.834-13.6499h8.667v22.1799h-6.114V62.921l-4.084 14.2765h-4.925l-4.116-14.4005v14.4005h-6.238.004Zm73.987 0-1.182-3.6842h-7.638l-1.215 3.6842h-6.641l8.136-22.1799h7.205l8.168 22.1799h-6.833Zm-7.234-8.592h4.426l-2.214-6.8103-2.215 6.8103h.003Zm50.397 8.592V55.0176h9.107c6.986 0 11.787 3.8734 11.787 10.8403v.4993c0 6.9995-4.834 10.8403-11.787 10.8403h-9.107Zm6.423-5.2472h2.306c3.276 0 5.332-1.4065 5.332-5.5931v-.4993c0-4.216-2.088-5.5931-5.267-5.5931h-2.371v11.6855Zm66.261 5.2472-1.182-3.6842h-7.638l-1.215 3.6842h-6.641l8.136-22.1799h7.205l8.168 22.1799h-6.833Zm-7.234-8.592h4.426l-2.214-6.8103-2.215 6.8103h.003Z"/>
</svg>