<svg xmlns="http://www.w3.org/2000/svg" fill="none" viewBox="0 0 383 135">
  <path fill="#FF0" d="M92.6527 67.0073H67.6882v25.0545h24.9645V67.0073ZM42.7093 41.9385c13.778 0 24.9644 11.2268 24.9644 25.0545H42.7093V41.9385Zm0 25.0688L28.2991 92.0618h28.8252l-14.415-25.0545Zm50.0351-.0191c6.8897 0 12.4746-5.6054 12.4746-12.52 0-6.9146-5.5849-12.52-12.4746-12.52-6.8898 0-12.475 5.6054-12.475 12.52 0 6.9146 5.5852 12.52 12.475 12.52Z"/>
  <path fill="#FF0" d="M66.7569 134c-17.8318 0-34.597-6.97-47.2071-19.625C6.94449 101.719 0 84.8936 0 66.9976c0-17.8961 6.94449-34.7217 19.5546-47.3725C32.1599 6.96953 48.9251 0 66.7569 0c17.8317 0 34.5971 6.96953 47.2071 19.6251 12.61 12.6556 19.555 29.4813 19.555 47.3773 0 17.8961-6.945 34.7216-19.555 47.3776-12.61 12.655-29.3754 19.625-47.2071 19.625V134Zm0-125.69372c-15.6215 0-30.3116 6.10742-41.3581 17.19382C14.3523 36.5864 8.26679 51.3246 8.26679 67.0073c0 15.6826 6.08551 30.4208 17.13201 41.5067 11.0465 11.087 25.7318 17.194 41.3581 17.194s30.3115-6.107 41.3581-17.194c11.046-11.0859 17.132-25.8241 17.132-41.5067 0-15.6827-6.086-30.4209-17.132-41.5072C97.0684 14.4137 82.3832 8.30628 66.7569 8.30628ZM174.625 59.34h-5.916V44.8778h-8.745V59.34h-5.921V38.9399h20.582V59.34Zm66.637-20.3903h-5.922v20.3855h5.922V38.9497Zm13.811 0h-5.921v20.3855h5.921V38.9497Zm-6.905 0h-5.922v20.3855h5.922V38.9497Zm90.239 11.1881h-5.921c0-2.8915-2.346-5.2453-5.227-5.2453v-5.9379c6.144 0 11.143 5.0177 11.143 11.1832h.005Z"/>
  <path fill="#FF0" d="M338.576 58.7879h-19.728V38.9497h5.921v13.8955h13.807v5.9427Zm29.617-12.6409h-5.922v5.996h5.922v-5.996Zm13.812 0h-5.922v5.996h5.922v-5.996Zm-6.906 0h-5.922v5.996h5.922v-5.996Zm0-7.1973h-5.922v5.996h5.922v-5.996Zm-6.906 14.3945h-5.922v5.9961h5.922v-5.9961Zm13.812 0h-5.922v5.9961h5.922v-5.9961Zm-13.812-14.3945h-5.922v5.996h5.922v-5.996Zm13.812 0h-5.922v5.996h5.922v-5.996ZM296.769 59.069h-5.921V44.6117h-8.745V59.069h-5.916V38.6689h20.582V59.069Z"/>
  <path fill="#FF0" d="M289.434 48.8737c0 1.6419-1.327 2.969-2.958 2.969-1.631 0-2.959-1.3319-2.959-2.969 0-1.637 1.328-2.9689 2.959-2.9689s2.958 1.3319 2.958 2.9689Zm-85.293-9.9093-5.854 10.1806h11.712l-5.858-10.1806Z"/>
  <path fill="#FF0" d="m198.287 49.1401-5.859 10.1855h11.713l-5.854-10.1855Zm11.712 0-5.853 10.1855h11.712l-5.859-10.1855Zm-54.436 46.2003V79.0571h5.55l4.956 9.3573v-9.3573h4.503v16.2833h-5.299l-5.164-9.861v9.861h-4.551.005Zm51.647 0-.869-2.7075h-5.598l-.892 2.7075h-4.87l5.965-16.2833h5.28l5.984 16.2833h-5.005.005Zm-5.299-6.306h3.243l-1.621-4.9983-1.622 4.9983Zm34.095 6.306V79.0571h6.718l2.789 10.0208 2.809-10.0208h6.351v16.2833h-4.479v-10.481l-2.992 10.481h-3.609l-3.017-10.573v10.573h-4.57Zm54.219 0-.868-2.7075h-5.598l-.893 2.7075h-4.869l5.964-16.2833h5.28l5.984 16.2833h-5.004.004Zm-5.298-6.306h3.243l-1.622-4.9983-1.621 4.9983Zm36.932 6.306V79.0571h6.674c5.121 0 8.639 2.8431 8.639 7.9576v.3681c0 5.1387-3.542 7.9576-8.639 7.9576h-6.674Zm4.706-3.8505h1.689c2.398 0 3.909-1.0316 3.909-4.1071v-.3681c0-3.0949-1.53-4.1071-3.861-4.1071h-1.737v8.5823Zm48.558 3.8505-.869-2.7075h-5.598l-.893 2.7075h-4.869l5.965-16.2833h5.279l5.984 16.2833h-5.004.005Zm-5.299-6.306h3.243l-1.621-4.9983-1.622 4.9983Z"/>
</svg>